<mxfile host="Electron" agent="Mozilla/5.0 (Windows NT 10.0; Win64; x64) AppleWebKit/537.36 (KHTML, like Gecko) draw.io/28.2.5 Chrome/138.0.7204.251 Electron/37.6.1 Safari/537.36" version="28.2.5">
  <diagram name="1 oldal" id="WoQwKkAiL-tTDstR1ZmZ">
    <mxGraphModel dx="1869" dy="634" grid="1" gridSize="10" guides="1" tooltips="1" connect="1" arrows="1" fold="1" page="1" pageScale="1" pageWidth="827" pageHeight="1169" math="0" shadow="0">
      <root>
        <mxCell id="0" />
        <mxCell id="1" parent="0" />
        <mxCell id="EZMYs-yg0aFDQuo-gLoh-1" value="oy6icj_kurzusfelvetel" style="ellipse;whiteSpace=wrap;html=1;" vertex="1" parent="1">
          <mxGeometry x="340" y="40" width="120" height="80" as="geometry" />
        </mxCell>
        <mxCell id="EZMYs-yg0aFDQuo-gLoh-2" value="hallgato" style="ellipse;whiteSpace=wrap;html=1;" vertex="1" parent="1">
          <mxGeometry x="36" y="160" width="90" height="60" as="geometry" />
        </mxCell>
        <mxCell id="EZMYs-yg0aFDQuo-gLoh-3" value="kurzusok" style="ellipse;whiteSpace=wrap;html=1;" vertex="1" parent="1">
          <mxGeometry x="674" y="160" width="90" height="60" as="geometry" />
        </mxCell>
        <mxCell id="EZMYs-yg0aFDQuo-gLoh-4" value="szulev" style="ellipse;whiteSpace=wrap;html=1;" vertex="1" parent="1">
          <mxGeometry x="41" y="280" width="80" height="50" as="geometry" />
        </mxCell>
        <mxCell id="EZMYs-yg0aFDQuo-gLoh-5" value="hnev" style="ellipse;whiteSpace=wrap;html=1;" vertex="1" parent="1">
          <mxGeometry x="-80" y="280" width="80" height="50" as="geometry" />
        </mxCell>
        <mxCell id="EZMYs-yg0aFDQuo-gLoh-6" value="szak" style="ellipse;whiteSpace=wrap;html=1;" vertex="1" parent="1">
          <mxGeometry x="160" y="280" width="80" height="50" as="geometry" />
        </mxCell>
        <mxCell id="EZMYs-yg0aFDQuo-gLoh-9" value="" style="rounded=0;whiteSpace=wrap;html=1;" vertex="1" parent="1">
          <mxGeometry x="-55" y="400" width="30" height="50" as="geometry" />
        </mxCell>
        <mxCell id="EZMYs-yg0aFDQuo-gLoh-10" value="" style="rounded=0;whiteSpace=wrap;html=1;" vertex="1" parent="1">
          <mxGeometry x="66" y="400" width="30" height="50" as="geometry" />
        </mxCell>
        <mxCell id="EZMYs-yg0aFDQuo-gLoh-11" value="" style="rounded=0;whiteSpace=wrap;html=1;" vertex="1" parent="1">
          <mxGeometry x="185" y="400" width="30" height="50" as="geometry" />
        </mxCell>
        <mxCell id="EZMYs-yg0aFDQuo-gLoh-12" value="" style="rounded=0;whiteSpace=wrap;html=1;" vertex="1" parent="1">
          <mxGeometry x="265.5" y="479" width="30" height="50" as="geometry" />
        </mxCell>
        <mxCell id="EZMYs-yg0aFDQuo-gLoh-14" value="" style="endArrow=none;html=1;rounded=0;entryX=0.5;entryY=1;entryDx=0;entryDy=0;exitX=0.5;exitY=0;exitDx=0;exitDy=0;" edge="1" parent="1" source="EZMYs-yg0aFDQuo-gLoh-2" target="EZMYs-yg0aFDQuo-gLoh-1">
          <mxGeometry width="50" height="50" relative="1" as="geometry">
            <mxPoint x="319" y="350" as="sourcePoint" />
            <mxPoint x="319" y="120" as="targetPoint" />
          </mxGeometry>
        </mxCell>
        <mxCell id="EZMYs-yg0aFDQuo-gLoh-15" value="" style="endArrow=none;html=1;rounded=0;entryX=0.5;entryY=1;entryDx=0;entryDy=0;exitX=0.5;exitY=0;exitDx=0;exitDy=0;" edge="1" parent="1" source="EZMYs-yg0aFDQuo-gLoh-5" target="EZMYs-yg0aFDQuo-gLoh-2">
          <mxGeometry width="50" height="50" relative="1" as="geometry">
            <mxPoint x="319" y="350" as="sourcePoint" />
            <mxPoint x="369" y="300" as="targetPoint" />
          </mxGeometry>
        </mxCell>
        <mxCell id="EZMYs-yg0aFDQuo-gLoh-16" value="" style="endArrow=none;html=1;rounded=0;entryX=0.5;entryY=1;entryDx=0;entryDy=0;exitX=0.5;exitY=0;exitDx=0;exitDy=0;" edge="1" parent="1" source="EZMYs-yg0aFDQuo-gLoh-4" target="EZMYs-yg0aFDQuo-gLoh-2">
          <mxGeometry width="50" height="50" relative="1" as="geometry">
            <mxPoint x="319" y="350" as="sourcePoint" />
            <mxPoint x="369" y="300" as="targetPoint" />
          </mxGeometry>
        </mxCell>
        <mxCell id="EZMYs-yg0aFDQuo-gLoh-17" value="" style="endArrow=none;html=1;rounded=0;entryX=0.5;entryY=1;entryDx=0;entryDy=0;exitX=0.5;exitY=0;exitDx=0;exitDy=0;" edge="1" parent="1" source="EZMYs-yg0aFDQuo-gLoh-6" target="EZMYs-yg0aFDQuo-gLoh-2">
          <mxGeometry width="50" height="50" relative="1" as="geometry">
            <mxPoint x="319" y="350" as="sourcePoint" />
            <mxPoint x="369" y="300" as="targetPoint" />
          </mxGeometry>
        </mxCell>
        <mxCell id="EZMYs-yg0aFDQuo-gLoh-18" value="" style="endArrow=none;html=1;rounded=0;entryX=0.5;entryY=1;entryDx=0;entryDy=0;exitX=0.5;exitY=0;exitDx=0;exitDy=0;" edge="1" parent="1" source="EZMYs-yg0aFDQuo-gLoh-9" target="EZMYs-yg0aFDQuo-gLoh-5">
          <mxGeometry width="50" height="50" relative="1" as="geometry">
            <mxPoint x="319" y="350" as="sourcePoint" />
            <mxPoint x="369" y="300" as="targetPoint" />
          </mxGeometry>
        </mxCell>
        <mxCell id="EZMYs-yg0aFDQuo-gLoh-19" value="" style="endArrow=none;html=1;rounded=0;entryX=0.5;entryY=1;entryDx=0;entryDy=0;exitX=0.5;exitY=0;exitDx=0;exitDy=0;" edge="1" parent="1" source="EZMYs-yg0aFDQuo-gLoh-10" target="EZMYs-yg0aFDQuo-gLoh-4">
          <mxGeometry width="50" height="50" relative="1" as="geometry">
            <mxPoint x="-1" y="370" as="sourcePoint" />
            <mxPoint x="-1" y="340" as="targetPoint" />
          </mxGeometry>
        </mxCell>
        <mxCell id="EZMYs-yg0aFDQuo-gLoh-20" value="" style="endArrow=none;html=1;rounded=0;entryX=0.5;entryY=1;entryDx=0;entryDy=0;exitX=0.5;exitY=0;exitDx=0;exitDy=0;" edge="1" parent="1" source="EZMYs-yg0aFDQuo-gLoh-11" target="EZMYs-yg0aFDQuo-gLoh-6">
          <mxGeometry width="50" height="50" relative="1" as="geometry">
            <mxPoint x="189" y="390" as="sourcePoint" />
            <mxPoint x="189" y="360" as="targetPoint" />
          </mxGeometry>
        </mxCell>
        <mxCell id="EZMYs-yg0aFDQuo-gLoh-21" value="" style="endArrow=none;html=1;rounded=0;entryX=0.5;entryY=1;entryDx=0;entryDy=0;exitX=0.5;exitY=0;exitDx=0;exitDy=0;" edge="1" parent="1" source="EZMYs-yg0aFDQuo-gLoh-12" target="EZMYs-yg0aFDQuo-gLoh-27">
          <mxGeometry width="50" height="50" relative="1" as="geometry">
            <mxPoint x="279" y="510" as="sourcePoint" />
            <mxPoint x="319" y="410" as="targetPoint" />
          </mxGeometry>
        </mxCell>
        <mxCell id="EZMYs-yg0aFDQuo-gLoh-22" value="" style="endArrow=none;html=1;rounded=0;entryX=0.5;entryY=1;entryDx=0;entryDy=0;exitX=0.5;exitY=0;exitDx=0;exitDy=0;" edge="1" parent="1" source="EZMYs-yg0aFDQuo-gLoh-27" target="EZMYs-yg0aFDQuo-gLoh-6">
          <mxGeometry width="50" height="50" relative="1" as="geometry">
            <mxPoint x="340" y="330" as="sourcePoint" />
            <mxPoint x="229" y="420" as="targetPoint" />
          </mxGeometry>
        </mxCell>
        <mxCell id="EZMYs-yg0aFDQuo-gLoh-23" value="" style="ellipse;whiteSpace=wrap;html=1;" vertex="1" parent="1">
          <mxGeometry x="674" y="280" width="90" height="60" as="geometry" />
        </mxCell>
        <mxCell id="EZMYs-yg0aFDQuo-gLoh-25" value="kurzus" style="ellipse;whiteSpace=wrap;html=1;" vertex="1" parent="1">
          <mxGeometry x="681.5" y="285" width="75" height="50" as="geometry" />
        </mxCell>
        <mxCell id="EZMYs-yg0aFDQuo-gLoh-27" value="&lt;u&gt;evf&lt;/u&gt;" style="rhombus;whiteSpace=wrap;html=1;" vertex="1" parent="1">
          <mxGeometry x="260" y="400" width="41" height="40" as="geometry" />
        </mxCell>
        <mxCell id="EZMYs-yg0aFDQuo-gLoh-29" value="&lt;u&gt;tanev&lt;/u&gt;" style="rhombus;whiteSpace=wrap;html=1;" vertex="1" parent="1">
          <mxGeometry x="299" y="160" width="41" height="40" as="geometry" />
        </mxCell>
        <mxCell id="EZMYs-yg0aFDQuo-gLoh-31" value="egyetem" style="ellipse;whiteSpace=wrap;html=1;" vertex="1" parent="1">
          <mxGeometry x="440" y="160" width="90" height="60" as="geometry" />
        </mxCell>
        <mxCell id="EZMYs-yg0aFDQuo-gLoh-32" value="" style="rounded=0;whiteSpace=wrap;html=1;" vertex="1" parent="1">
          <mxGeometry x="470" y="280" width="30" height="50" as="geometry" />
        </mxCell>
        <mxCell id="EZMYs-yg0aFDQuo-gLoh-33" value="" style="endArrow=none;html=1;rounded=0;exitX=0.5;exitY=0;exitDx=0;exitDy=0;entryX=0.5;entryY=1;entryDx=0;entryDy=0;" edge="1" parent="1" source="EZMYs-yg0aFDQuo-gLoh-32" target="EZMYs-yg0aFDQuo-gLoh-31">
          <mxGeometry width="50" height="50" relative="1" as="geometry">
            <mxPoint x="435" y="280" as="sourcePoint" />
            <mxPoint x="530" y="260" as="targetPoint" />
          </mxGeometry>
        </mxCell>
        <mxCell id="EZMYs-yg0aFDQuo-gLoh-34" value="" style="endArrow=none;html=1;rounded=0;exitX=0.5;exitY=0;exitDx=0;exitDy=0;entryX=0.5;entryY=1;entryDx=0;entryDy=0;" edge="1" parent="1" source="EZMYs-yg0aFDQuo-gLoh-29" target="EZMYs-yg0aFDQuo-gLoh-1">
          <mxGeometry width="50" height="50" relative="1" as="geometry">
            <mxPoint x="480" y="260" as="sourcePoint" />
            <mxPoint x="480" y="230" as="targetPoint" />
          </mxGeometry>
        </mxCell>
        <mxCell id="EZMYs-yg0aFDQuo-gLoh-35" value="" style="endArrow=none;html=1;rounded=0;exitX=0.5;exitY=0;exitDx=0;exitDy=0;entryX=0.5;entryY=1;entryDx=0;entryDy=0;" edge="1" parent="1" source="EZMYs-yg0aFDQuo-gLoh-31" target="EZMYs-yg0aFDQuo-gLoh-1">
          <mxGeometry width="50" height="50" relative="1" as="geometry">
            <mxPoint x="400" y="220" as="sourcePoint" />
            <mxPoint x="400" y="190" as="targetPoint" />
          </mxGeometry>
        </mxCell>
        <mxCell id="EZMYs-yg0aFDQuo-gLoh-36" value="" style="endArrow=none;html=1;rounded=0;exitX=0.5;exitY=0;exitDx=0;exitDy=0;entryX=0.5;entryY=1;entryDx=0;entryDy=0;" edge="1" parent="1" source="EZMYs-yg0aFDQuo-gLoh-3" target="EZMYs-yg0aFDQuo-gLoh-1">
          <mxGeometry width="50" height="50" relative="1" as="geometry">
            <mxPoint x="530" y="160" as="sourcePoint" />
            <mxPoint x="530" y="130" as="targetPoint" />
          </mxGeometry>
        </mxCell>
        <mxCell id="EZMYs-yg0aFDQuo-gLoh-37" value="" style="endArrow=none;html=1;rounded=0;exitX=0.5;exitY=0;exitDx=0;exitDy=0;entryX=0.5;entryY=1;entryDx=0;entryDy=0;" edge="1" parent="1" source="EZMYs-yg0aFDQuo-gLoh-23" target="EZMYs-yg0aFDQuo-gLoh-3">
          <mxGeometry width="50" height="50" relative="1" as="geometry">
            <mxPoint x="600" y="330" as="sourcePoint" />
            <mxPoint x="600" y="300" as="targetPoint" />
          </mxGeometry>
        </mxCell>
        <mxCell id="EZMYs-yg0aFDQuo-gLoh-39" value="&lt;u&gt;id&lt;/u&gt;" style="rhombus;whiteSpace=wrap;html=1;" vertex="1" parent="1">
          <mxGeometry x="359" y="400" width="41" height="40" as="geometry" />
        </mxCell>
        <mxCell id="EZMYs-yg0aFDQuo-gLoh-41" value="hely" style="ellipse;whiteSpace=wrap;html=1;" vertex="1" parent="1">
          <mxGeometry x="679" y="400" width="80" height="50" as="geometry" />
        </mxCell>
        <mxCell id="EZMYs-yg0aFDQuo-gLoh-42" value="kredit" style="ellipse;whiteSpace=wrap;html=1;" vertex="1" parent="1">
          <mxGeometry x="559" y="400" width="80" height="50" as="geometry" />
        </mxCell>
        <mxCell id="EZMYs-yg0aFDQuo-gLoh-43" value="kurzusnev" style="ellipse;whiteSpace=wrap;html=1;" vertex="1" parent="1">
          <mxGeometry x="439" y="400" width="80" height="50" as="geometry" />
        </mxCell>
        <mxCell id="EZMYs-yg0aFDQuo-gLoh-44" value="idopont" style="ellipse;whiteSpace=wrap;html=1;" vertex="1" parent="1">
          <mxGeometry x="799" y="400" width="80" height="50" as="geometry" />
        </mxCell>
        <mxCell id="EZMYs-yg0aFDQuo-gLoh-45" value="oktato" style="ellipse;whiteSpace=wrap;html=1;" vertex="1" parent="1">
          <mxGeometry x="919" y="400" width="80" height="50" as="geometry" />
        </mxCell>
        <mxCell id="EZMYs-yg0aFDQuo-gLoh-47" value="" style="endArrow=none;html=1;rounded=0;entryX=0.5;entryY=1;entryDx=0;entryDy=0;exitX=0.5;exitY=0;exitDx=0;exitDy=0;" edge="1" parent="1" source="EZMYs-yg0aFDQuo-gLoh-43" target="EZMYs-yg0aFDQuo-gLoh-23">
          <mxGeometry width="50" height="50" relative="1" as="geometry">
            <mxPoint x="520" y="390" as="sourcePoint" />
            <mxPoint x="521" y="360" as="targetPoint" />
          </mxGeometry>
        </mxCell>
        <mxCell id="EZMYs-yg0aFDQuo-gLoh-48" value="" style="endArrow=none;html=1;rounded=0;entryX=0.5;entryY=1;entryDx=0;entryDy=0;exitX=0.5;exitY=0;exitDx=0;exitDy=0;" edge="1" parent="1" source="EZMYs-yg0aFDQuo-gLoh-42" target="EZMYs-yg0aFDQuo-gLoh-23">
          <mxGeometry width="50" height="50" relative="1" as="geometry">
            <mxPoint x="510" y="510" as="sourcePoint" />
            <mxPoint x="511" y="480" as="targetPoint" />
          </mxGeometry>
        </mxCell>
        <mxCell id="EZMYs-yg0aFDQuo-gLoh-49" value="" style="endArrow=none;html=1;rounded=0;entryX=0.5;entryY=1;entryDx=0;entryDy=0;exitX=0.5;exitY=0;exitDx=0;exitDy=0;" edge="1" parent="1" source="EZMYs-yg0aFDQuo-gLoh-41" target="EZMYs-yg0aFDQuo-gLoh-23">
          <mxGeometry width="50" height="50" relative="1" as="geometry">
            <mxPoint x="520" y="520" as="sourcePoint" />
            <mxPoint x="521" y="490" as="targetPoint" />
          </mxGeometry>
        </mxCell>
        <mxCell id="EZMYs-yg0aFDQuo-gLoh-50" value="" style="endArrow=none;html=1;rounded=0;entryX=0.5;entryY=1;entryDx=0;entryDy=0;exitX=0.5;exitY=0;exitDx=0;exitDy=0;" edge="1" parent="1" source="EZMYs-yg0aFDQuo-gLoh-44" target="EZMYs-yg0aFDQuo-gLoh-23">
          <mxGeometry width="50" height="50" relative="1" as="geometry">
            <mxPoint x="680" y="530" as="sourcePoint" />
            <mxPoint x="681" y="500" as="targetPoint" />
          </mxGeometry>
        </mxCell>
        <mxCell id="EZMYs-yg0aFDQuo-gLoh-51" value="" style="endArrow=none;html=1;rounded=0;entryX=0.5;entryY=1;entryDx=0;entryDy=0;exitX=0.5;exitY=0;exitDx=0;exitDy=0;" edge="1" parent="1" source="EZMYs-yg0aFDQuo-gLoh-45" target="EZMYs-yg0aFDQuo-gLoh-23">
          <mxGeometry width="50" height="50" relative="1" as="geometry">
            <mxPoint x="800" y="530" as="sourcePoint" />
            <mxPoint x="801" y="500" as="targetPoint" />
          </mxGeometry>
        </mxCell>
        <mxCell id="EZMYs-yg0aFDQuo-gLoh-52" value="" style="endArrow=none;html=1;rounded=0;entryX=0.5;entryY=1;entryDx=0;entryDy=0;exitX=0.5;exitY=0;exitDx=0;exitDy=0;" edge="1" parent="1" source="EZMYs-yg0aFDQuo-gLoh-39" target="EZMYs-yg0aFDQuo-gLoh-23">
          <mxGeometry width="50" height="50" relative="1" as="geometry">
            <mxPoint x="550" y="390" as="sourcePoint" />
            <mxPoint x="551" y="360" as="targetPoint" />
          </mxGeometry>
        </mxCell>
        <mxCell id="EZMYs-yg0aFDQuo-gLoh-53" value="jovahagyva" style="ellipse;whiteSpace=wrap;html=1;dashed=1;" vertex="1" parent="1">
          <mxGeometry x="1040" y="400" width="80" height="50" as="geometry" />
        </mxCell>
        <mxCell id="EZMYs-yg0aFDQuo-gLoh-54" value="nyelv" style="ellipse;whiteSpace=wrap;html=1;dashed=1;" vertex="1" parent="1">
          <mxGeometry x="1160.5" y="400" width="80" height="50" as="geometry" />
        </mxCell>
        <mxCell id="EZMYs-yg0aFDQuo-gLoh-56" value="" style="endArrow=none;html=1;rounded=0;exitX=0.5;exitY=0;exitDx=0;exitDy=0;entryX=0.5;entryY=1;entryDx=0;entryDy=0;" edge="1" parent="1" source="EZMYs-yg0aFDQuo-gLoh-53" target="EZMYs-yg0aFDQuo-gLoh-23">
          <mxGeometry width="50" height="50" relative="1" as="geometry">
            <mxPoint x="980" y="350" as="sourcePoint" />
            <mxPoint x="980" y="290" as="targetPoint" />
          </mxGeometry>
        </mxCell>
        <mxCell id="EZMYs-yg0aFDQuo-gLoh-57" value="" style="endArrow=none;html=1;rounded=0;exitX=0.5;exitY=0;exitDx=0;exitDy=0;entryX=0.5;entryY=1;entryDx=0;entryDy=0;" edge="1" parent="1" source="EZMYs-yg0aFDQuo-gLoh-54" target="EZMYs-yg0aFDQuo-gLoh-23">
          <mxGeometry width="50" height="50" relative="1" as="geometry">
            <mxPoint x="1070" y="340" as="sourcePoint" />
            <mxPoint x="1070" y="280" as="targetPoint" />
          </mxGeometry>
        </mxCell>
        <mxCell id="EZMYs-yg0aFDQuo-gLoh-58" value="" style="rounded=0;whiteSpace=wrap;html=1;" vertex="1" parent="1">
          <mxGeometry x="464" y="479" width="30" height="50" as="geometry" />
        </mxCell>
        <mxCell id="EZMYs-yg0aFDQuo-gLoh-59" value="" style="endArrow=none;html=1;rounded=0;entryX=0.5;entryY=1;entryDx=0;entryDy=0;exitX=0.5;exitY=0;exitDx=0;exitDy=0;" edge="1" parent="1" source="EZMYs-yg0aFDQuo-gLoh-58" target="EZMYs-yg0aFDQuo-gLoh-43">
          <mxGeometry width="50" height="50" relative="1" as="geometry">
            <mxPoint x="483.5" y="550" as="sourcePoint" />
            <mxPoint x="485.5" y="480" as="targetPoint" />
          </mxGeometry>
        </mxCell>
        <mxCell id="EZMYs-yg0aFDQuo-gLoh-60" value="" style="rounded=0;whiteSpace=wrap;html=1;" vertex="1" parent="1">
          <mxGeometry x="584" y="479" width="30" height="50" as="geometry" />
        </mxCell>
        <mxCell id="EZMYs-yg0aFDQuo-gLoh-61" value="" style="endArrow=none;html=1;rounded=0;entryX=0.5;entryY=1;entryDx=0;entryDy=0;exitX=0.5;exitY=0;exitDx=0;exitDy=0;" edge="1" parent="1" source="EZMYs-yg0aFDQuo-gLoh-60" target="EZMYs-yg0aFDQuo-gLoh-42">
          <mxGeometry width="50" height="50" relative="1" as="geometry">
            <mxPoint x="603.5" y="550" as="sourcePoint" />
            <mxPoint x="605.5" y="480" as="targetPoint" />
          </mxGeometry>
        </mxCell>
        <mxCell id="EZMYs-yg0aFDQuo-gLoh-62" value="" style="rounded=0;whiteSpace=wrap;html=1;" vertex="1" parent="1">
          <mxGeometry x="704" y="479" width="30" height="50" as="geometry" />
        </mxCell>
        <mxCell id="EZMYs-yg0aFDQuo-gLoh-63" value="" style="endArrow=none;html=1;rounded=0;entryX=0.5;entryY=1;entryDx=0;entryDy=0;exitX=0.5;exitY=0;exitDx=0;exitDy=0;" edge="1" parent="1" source="EZMYs-yg0aFDQuo-gLoh-62" target="EZMYs-yg0aFDQuo-gLoh-41">
          <mxGeometry width="50" height="50" relative="1" as="geometry">
            <mxPoint x="723.5" y="570" as="sourcePoint" />
            <mxPoint x="725.5" y="500" as="targetPoint" />
          </mxGeometry>
        </mxCell>
        <mxCell id="EZMYs-yg0aFDQuo-gLoh-64" value="" style="rounded=0;whiteSpace=wrap;html=1;" vertex="1" parent="1">
          <mxGeometry x="824" y="479" width="30" height="50" as="geometry" />
        </mxCell>
        <mxCell id="EZMYs-yg0aFDQuo-gLoh-65" value="" style="endArrow=none;html=1;rounded=0;entryX=0.5;entryY=1;entryDx=0;entryDy=0;exitX=0.5;exitY=0;exitDx=0;exitDy=0;" edge="1" parent="1" source="EZMYs-yg0aFDQuo-gLoh-64" target="EZMYs-yg0aFDQuo-gLoh-44">
          <mxGeometry width="50" height="50" relative="1" as="geometry">
            <mxPoint x="843.5" y="570" as="sourcePoint" />
            <mxPoint x="845.5" y="500" as="targetPoint" />
          </mxGeometry>
        </mxCell>
        <mxCell id="EZMYs-yg0aFDQuo-gLoh-66" value="" style="rounded=0;whiteSpace=wrap;html=1;" vertex="1" parent="1">
          <mxGeometry x="944" y="479" width="30" height="50" as="geometry" />
        </mxCell>
        <mxCell id="EZMYs-yg0aFDQuo-gLoh-67" value="" style="endArrow=none;html=1;rounded=0;entryX=0.5;entryY=1;entryDx=0;entryDy=0;exitX=0.5;exitY=0;exitDx=0;exitDy=0;" edge="1" parent="1" source="EZMYs-yg0aFDQuo-gLoh-66" target="EZMYs-yg0aFDQuo-gLoh-45">
          <mxGeometry width="50" height="50" relative="1" as="geometry">
            <mxPoint x="983.5" y="570" as="sourcePoint" />
            <mxPoint x="985.5" y="500" as="targetPoint" />
          </mxGeometry>
        </mxCell>
        <mxCell id="EZMYs-yg0aFDQuo-gLoh-68" value="" style="rounded=0;whiteSpace=wrap;html=1;" vertex="1" parent="1">
          <mxGeometry x="1065" y="479" width="30" height="50" as="geometry" />
        </mxCell>
        <mxCell id="EZMYs-yg0aFDQuo-gLoh-69" value="" style="endArrow=none;html=1;rounded=0;entryX=0.5;entryY=1;entryDx=0;entryDy=0;exitX=0.5;exitY=0;exitDx=0;exitDy=0;" edge="1" parent="1" source="EZMYs-yg0aFDQuo-gLoh-68" target="EZMYs-yg0aFDQuo-gLoh-53">
          <mxGeometry width="50" height="50" relative="1" as="geometry">
            <mxPoint x="1093.5" y="560" as="sourcePoint" />
            <mxPoint x="1095.5" y="490" as="targetPoint" />
          </mxGeometry>
        </mxCell>
        <mxCell id="EZMYs-yg0aFDQuo-gLoh-70" value="" style="rounded=0;whiteSpace=wrap;html=1;" vertex="1" parent="1">
          <mxGeometry x="1185.5" y="479" width="30" height="50" as="geometry" />
        </mxCell>
        <mxCell id="EZMYs-yg0aFDQuo-gLoh-71" value="" style="endArrow=none;html=1;rounded=0;entryX=0.5;entryY=1;entryDx=0;entryDy=0;exitX=0.5;exitY=0;exitDx=0;exitDy=0;" edge="1" parent="1" source="EZMYs-yg0aFDQuo-gLoh-70" target="EZMYs-yg0aFDQuo-gLoh-54">
          <mxGeometry width="50" height="50" relative="1" as="geometry">
            <mxPoint x="1213.5" y="560" as="sourcePoint" />
            <mxPoint x="1215.5" y="490" as="targetPoint" />
          </mxGeometry>
        </mxCell>
      </root>
    </mxGraphModel>
  </diagram>
</mxfile>
